<svg width="227" height="47" viewBox="0 0 227 47" fill="none" xmlns="http://www.w3.org/2000/svg">
<g clip-path="url(#clip0_119_6909)">
<path d="M26.1085 5.14513C27.6757 3.7731 28.9921 2.44004 28.9921 2.19058C28.9921 1.94112 27.8167 2.62713 26.3749 3.74971C24.4793 5.39496 22.8881 7.35797 21.6735 9.54968C20.5138 11.6857 19.5892 13.8373 19.5892 14.4298C19.5892 15.0222 20.4198 13.7359 21.4228 11.5843C22.5962 9.18302 24.1819 7.00391 26.1085 5.14513Z" fill="white"/>
<path d="M31.1233 9.93168C30.8726 9.68222 29.086 10.1811 27.1506 11.0309C25.2152 11.8806 23.2955 13.2448 22.8958 14.0244C22.4791 15.1054 22.4187 16.2903 22.7235 17.4077C23.1936 19.0838 23.3582 19.1617 23.8596 17.9924C24.1125 17.5642 24.4766 17.2115 24.9136 16.9715C25.3507 16.7315 25.8446 16.6129 26.3435 16.6281C27.4719 16.6281 29.3603 17.7351 30.9823 19.3566C32.4946 20.8534 34.2419 22.0851 34.9001 22.0851C35.5583 22.0851 36.0441 21.8201 36.0441 21.477C35.4249 19.4841 34.6816 17.5315 33.8188 15.6303C33.0464 13.6742 32.146 11.7706 31.1233 9.93168Z" fill="white"/>
<path d="M48.691 26.9262L47.3119 31.2138L46.7242 28.688C46.3014 27.1423 45.4388 25.7509 44.2403 24.681C43.6953 24.274 43.2421 23.7576 42.9101 23.1655C42.578 22.5733 42.3746 21.9184 42.3127 21.2432C42.3127 19.4112 42.5556 19.2865 46.2306 19.341C49.6783 19.341 50.1484 19.5827 50.1014 21.0171C49.8129 23.0276 49.3328 25.0062 48.6675 26.9262H48.691ZM36.4281 23.3012C35.9503 23.1914 35.5015 22.9815 35.1117 22.6854C34.6416 22.3657 33.1058 19.3254 31.6954 15.9265C29.282 10.1188 29.2114 9.69001 30.4965 8.73894C31.2801 8.18544 32.2047 7.95937 32.6121 8.19324C33.0196 8.42711 33.0039 8.97281 32.4946 9.49511C31.9563 10.1251 31.6544 10.9213 31.6405 11.7481C31.6405 12.5276 31.9931 13.1513 32.4241 13.1513C32.6319 13.1513 32.8312 13.0691 32.9782 12.9229C33.1251 12.7768 33.2077 12.5785 33.2077 12.3717C33.2077 11.8416 33.7875 11.865 34.8845 12.4575C36.4516 13.237 36.5221 13.237 36.0442 11.3115C35.6524 9.75237 35.8248 9.27684 36.7729 9.27684C37.7212 9.34661 38.6445 9.6121 39.484 10.0564C39.8792 10.2444 40.2068 10.5486 40.4226 10.9278C40.6384 11.307 40.732 11.743 40.6907 12.1768C40.5262 12.9564 40.0404 14.6792 39.6172 16.0746C39.1941 17.4701 39.0844 18.6316 39.3743 18.6628C39.6643 18.694 39.0766 19.0448 38.0579 19.4424C36.7259 19.9725 36.3184 20.6117 36.6162 21.7265C36.8356 22.584 36.7886 23.2856 36.5065 23.2856L36.4281 23.3012ZM39.437 23.3012C38.865 23.3012 38.6535 23.0673 38.9199 22.7867C38.9883 22.7186 39.0695 22.6645 39.1589 22.6277C39.2483 22.5908 39.3442 22.5718 39.4409 22.5718C39.5377 22.5718 39.6336 22.5908 39.723 22.6277C39.8124 22.6645 39.8936 22.7186 39.962 22.7867C40.2519 23.0751 40.0169 23.309 39.437 23.309V23.3012ZM56.417 19.6139C56.2054 20.144 56.0409 19.5203 56.0565 18.234C56.0722 16.9478 56.2446 16.519 56.4483 17.2752C56.6519 18.0416 56.6519 18.8475 56.4483 19.6139H56.417ZM52.7029 17.0413C52.326 16.9981 51.9764 16.8242 51.7156 16.5502C51.3083 15.7228 51.1272 14.8032 51.1906 13.8841C51.1906 12.7069 51.6372 11.5454 52.17 11.3817C52.9536 11.101 52.9536 10.8048 52.17 9.96285C51.3865 9.12092 51.0417 9.07415 50.4227 10.0564C49.8036 11.0387 49.6391 10.836 49.6391 9.27684C49.6391 8.20883 48.644 6.41583 47.4764 5.29326C46.312 4.17402 45.0209 3.193 43.6291 2.36989C42.6573 1.8638 41.5895 1.56634 40.4948 1.49677C39.5781 1.49677 39.3978 1.71505 39.9777 2.08145C40.5575 2.44784 40.8318 3.64058 40.7613 4.80213C40.6907 5.96368 40.4322 6.93814 40.1893 6.93814C39.3129 6.43047 38.5352 5.77036 37.8934 4.98923C36.8826 3.89004 35.2606 3.04031 34.2968 3.04031C33.333 3.04031 32.3927 2.60376 32.2125 2.06586C31.9539 1.28629 31.6248 1.28629 30.6454 2.06586C29.9167 2.66612 29.2271 2.77526 28.9529 2.3387C28.6786 1.90215 29.6032 1.20833 30.9588 0.779573C32.9352 0.232407 34.9802 -0.0301172 37.0315 7.48783e-06C39.2548 0.0527214 41.4597 0.414836 43.5821 1.07581C45.5591 1.84097 47.4268 2.86047 49.1376 4.10832C51.128 5.90273 52.7811 8.03571 54.0193 10.4072C56.2681 14.6714 56.2759 14.7338 54.7323 15.8642C54.1261 16.3616 53.447 16.7638 52.7185 17.0569L52.7029 17.0413ZM35.6759 8.46609C35.2606 8.46609 34.6964 7.9126 34.4379 7.23438C34.1793 6.55615 34.3203 6.1196 34.8923 6.30669C35.1732 6.41614 35.4278 6.58302 35.6397 6.79653C35.8516 7.01005 36.0161 7.26545 36.1225 7.5462C36.2949 8.0841 36.1225 8.49727 35.6681 8.49727L35.6759 8.46609ZM32.0401 6.43922C31.3976 6.68868 30.8648 6.54836 30.8648 6.13519C30.8648 5.72202 31.3976 5.35562 32.0401 5.35562C32.6827 5.35562 33.2155 5.49594 33.2155 5.66745C33.2155 5.83895 32.6905 6.17417 32.0401 6.44701V6.43922Z" fill="white"/>
<path d="M12.1296 30.216C14.4209 28.9905 16.988 28.3654 19.5892 28.3996C21.791 28.3996 26.9391 29.4052 31.0293 30.6291C34.6363 31.7302 38.2978 32.6461 41.9993 33.3732C43.5835 33.5548 45.1344 33.9562 46.6067 34.5659C46.744 34.6288 46.8675 34.7181 46.97 34.8288C47.0724 34.9394 47.1518 35.0692 47.2036 35.2106C47.2553 35.3519 47.2784 35.5021 47.2714 35.6524C47.2644 35.8026 47.2276 35.9501 47.163 36.0861V36.1251C46.8339 36.663 43.2922 37.045 37.8542 37.1385L29.0861 37.2866L36.1382 37.7933C39.3961 38.057 42.6676 38.1143 45.9328 37.9648C47.067 37.8642 48.1851 37.6286 49.263 37.2632C49.4596 37.0726 49.6136 36.8428 49.7149 36.5889C49.8161 36.335 49.8624 36.0627 49.8506 35.7898C49.8506 35.1896 48.8869 34.2307 47.6958 33.5915C45.8702 32.8043 43.9504 32.2541 41.9836 31.9544C38.2781 31.1715 34.6164 30.1957 31.0136 29.031C26.8216 27.698 21.8459 26.6923 19.6127 26.6923C16.4784 26.6923 13.924 27.4719 7.64761 30.4264C3.25179 32.4611 -0.188084 34.2931 -2.7e-05 34.4958C0.18803 34.6985 2.22531 34.2229 4.51333 33.4667C7.12331 32.5564 9.66796 31.4703 12.1296 30.216Z" fill="white"/>
<path d="M66.0235 25.2735C64.4564 25.2735 62.0038 26.2012 59.755 27.6824C58.2705 28.5685 56.8883 29.6142 55.6334 30.8006C55.3827 31.206 56.9185 30.4732 59.0498 29.1636C61.1811 27.8539 63.6807 26.8249 64.5974 26.8249C65.6396 26.8249 66.2743 27.316 66.2743 28.1111C66.2743 28.9063 64.9344 30.6681 63.2889 32.2039C60.4907 34.5585 57.4764 36.6466 54.2857 38.4404C50.8771 40.3503 47.3667 42.0888 43.7858 43.6479C41.0734 44.7547 38.1894 45.3876 35.2606 45.5188C33.0588 45.5188 26.9234 44.6613 21.6343 43.5933C17.7852 42.7426 13.8932 42.0973 9.97483 41.66C8.16684 41.8712 6.41068 42.399 4.7876 43.2191C3.06375 44.0766 2.35854 44.5288 3.22046 44.2248C5.01859 43.7783 6.85506 43.5016 8.70545 43.3984C10.97 43.2347 16.4393 43.9207 21.6343 45.0199C26.0217 45.9922 30.4732 46.6513 34.955 46.9922C38.1912 47.039 40.9258 46.3764 45.925 44.3417C49.665 42.8047 53.3121 41.053 56.8479 39.0952C59.7209 37.3108 62.4249 35.2704 64.9265 32.999C67.5985 30.4732 68.6877 28.8361 68.6877 27.3472C68.625 25.5152 68.3272 25.2735 66.0235 25.2735Z" fill="white"/>
<path d="M157.349 6.8212V26.7859H154.763V6.8212H157.349Z" fill="white"/>
<path d="M162.05 16.3631C162.05 14.8819 162.05 13.6658 161.932 12.4653H164.283L164.432 14.804H164.487C164.96 13.968 165.654 13.2769 166.494 12.8056C167.334 12.3342 168.287 12.1006 169.251 12.13C171.249 12.13 174.344 13.3228 174.344 18.234V26.8093H171.727V18.5225C171.727 16.1838 170.857 14.2894 168.389 14.2894C167.594 14.3016 166.824 14.5671 166.192 15.047C165.56 15.5269 165.1 16.1959 164.879 16.9556C164.748 17.3475 164.687 17.759 164.698 18.1717V26.7469H162.042L162.05 16.3631Z" fill="white"/>
<path d="M179.288 12.4652L182.109 20.5259C182.564 21.715 182.954 22.9277 183.277 24.1587H183.355C183.684 22.9738 184.139 21.82 184.578 20.487L187.383 12.4652H190.125L184.468 26.8014H181.968L176.483 12.4652H179.288Z" fill="white"/>
<path d="M194.043 20.0972C194.106 23.6208 196.394 25.0708 198.987 25.0708C200.357 25.0948 201.717 24.8291 202.976 24.2912L203.422 26.1544C201.903 26.7788 200.27 27.0815 198.627 27.0431C194.192 27.0431 191.575 24.1431 191.575 19.8165C191.575 15.49 194.137 12.0833 198.329 12.0833C203.031 12.0833 204.284 16.2072 204.284 18.8421C204.279 19.2488 204.25 19.6548 204.198 20.0582L194.043 20.0972ZM201.722 18.2262C201.722 16.5658 201.04 13.9932 198.094 13.9932C195.446 13.9932 194.278 16.4176 194.074 18.2262H201.722Z" fill="white"/>
<path d="M207.395 24.1587C208.433 24.8052 209.626 25.1632 210.851 25.1956C212.755 25.1956 213.648 24.2523 213.648 23.0674C213.648 21.8824 212.864 21.1418 210.968 20.4324C208.382 19.5125 207.16 18.0937 207.16 16.3709C207.16 14.0322 209.033 12.1612 212.128 12.1612C213.367 12.1471 214.588 12.4562 215.67 13.0577L215.019 14.9287C214.144 14.3532 213.122 14.0394 212.073 14.0244C210.506 14.0244 209.66 14.9131 209.66 15.9811C209.66 17.0491 210.522 17.6961 212.402 18.4133C214.902 19.3566 216.179 20.6039 216.179 22.7321C216.179 25.2501 214.212 27.0275 210.788 27.0275C209.379 27.0516 207.987 26.7162 206.745 26.0531L207.395 24.1587Z" fill="white"/>
<path d="M223.247 8.33356V12.4653H227V14.4843H223.247V22.2176C223.247 23.9872 223.756 25.0007 225.213 25.0007C225.725 24.9992 226.235 24.9391 226.734 24.8214L226.851 26.7781C226.095 27.0348 225.299 27.1536 224.5 27.1289C223.978 27.1604 223.454 27.0791 222.966 26.8908C222.478 26.7024 222.036 26.4113 221.672 26.0375C220.888 25.2579 220.653 23.9872 220.653 22.3034V14.5077H218.467V12.5042H220.692V9.03517L223.247 8.33356Z" fill="white"/>
<path d="M83.8889 6.14297H94.663V8.31017H86.4747V14.9443H94.0675V17.0725H86.4747V26.1076H83.8889V6.14297Z" fill="white"/>
<path d="M109.88 22.202C109.855 23.5026 109.897 24.8035 110.005 26.0998H107.655L107.506 23.7611H107.451C106.96 24.5811 106.262 25.2589 105.426 25.7267C104.59 26.1945 103.646 26.4361 102.687 26.4273C100.422 26.4273 97.7111 25.18 97.7111 20.144V11.7714H100.297V19.7074C100.297 22.4359 101.135 24.2757 103.517 24.2757C104.26 24.2645 104.983 24.037 105.597 23.6213C106.211 23.2057 106.69 22.6201 106.973 21.937C107.129 21.5096 107.208 21.0585 107.208 20.6039V11.7714H109.825L109.88 22.202Z" fill="white"/>
<path d="M117.7 7.65533V11.7714H121.453V13.7593H117.7V21.4848C117.7 23.2622 118.209 24.2757 119.667 24.2757C120.179 24.2742 120.689 24.2141 121.187 24.0964L121.304 26.0453C120.55 26.3082 119.753 26.4298 118.954 26.4039C118.43 26.4338 117.907 26.3511 117.419 26.1615C116.931 25.9718 116.489 25.6795 116.125 25.3047C115.341 24.5251 115.114 23.2622 115.114 21.5784V13.7827H112.834V11.7714H115.185V8.33356L117.7 7.65533Z" fill="white"/>
<path d="M136.686 22.202C136.686 23.6754 136.686 24.9851 136.803 26.0998H134.453L134.304 23.7611H134.241C133.755 24.5849 133.058 25.2657 132.221 25.7341C131.384 26.2024 130.437 26.4416 129.477 26.4273C127.212 26.4273 124.501 25.18 124.501 20.144V11.7714H127.126V19.7074C127.126 22.4359 127.957 24.2757 130.339 24.2757C131.082 24.2645 131.805 24.037 132.419 23.6213C133.033 23.2057 133.511 22.6201 133.794 21.937C133.95 21.5096 134.03 21.0585 134.03 20.6039V11.7714H136.654L136.686 22.202Z" fill="white"/>
<path d="M141.27 16.2461C141.27 14.5545 141.27 13.1279 141.152 11.7714H143.44L143.534 14.5857H143.652C143.9 13.7131 144.419 12.9412 145.136 12.3809C145.853 11.8206 146.729 11.5008 147.64 11.4674C147.905 11.4595 148.169 11.491 148.424 11.561V14.0244C148.131 13.9569 147.831 13.9281 147.53 13.9386C145.689 13.9386 144.396 15.3263 144.02 17.283C143.942 17.6837 143.902 18.0909 143.902 18.4991V26.1388H141.309L141.27 16.2461Z" fill="white"/>
<path d="M89.178 31.5802V44.1936H87.5403V31.5802H89.178Z" fill="white"/>
<path d="M91.9832 37.5906C91.9994 36.7713 91.9732 35.9517 91.9048 35.135H93.378L93.472 36.6318C93.7716 36.1037 94.2098 35.6667 94.7398 35.3673C95.2698 35.068 95.8716 34.9176 96.4809 34.9323C97.7424 34.9323 99.7014 35.7119 99.7014 38.8301V44.1936H98.048V38.9705C98.048 37.5049 97.4995 36.2888 95.9402 36.2888C95.3035 36.3111 94.7009 36.5807 94.2615 37.0397C93.8222 37.4987 93.5809 38.1106 93.5895 38.7444V44.2014H91.9362L91.9832 37.5906Z" fill="white"/>
<path d="M104.301 32.5391V35.1584H106.652V36.4135H104.301V41.3092C104.301 42.4317 104.622 43.0632 105.547 43.0632C105.869 43.0698 106.19 43.0331 106.503 42.9541L106.581 44.1858C106.108 44.3504 105.609 44.4271 105.108 44.4118C104.777 44.4322 104.446 44.3807 104.138 44.2609C103.829 44.1411 103.551 43.9558 103.321 43.718C102.819 43.0468 102.592 42.2108 102.687 41.3793V36.4291H101.276V35.1584H102.687V32.9912L104.301 32.5391Z" fill="white"/>
<path d="M109.339 39.9683C109.309 40.3481 109.355 40.7301 109.473 41.0925C109.592 41.4548 109.781 41.7903 110.03 42.0799C110.279 42.3695 110.582 42.6074 110.924 42.7802C111.265 42.9529 111.637 43.057 112.019 43.0866C112.17 43.1022 112.322 43.1022 112.474 43.0866C113.339 43.1152 114.2 42.9556 114.997 42.6188L115.279 43.796C114.32 44.196 113.286 44.3873 112.246 44.3573C109.449 44.3573 107.772 42.5253 107.772 39.7968C107.772 37.0683 109.394 34.9089 112.043 34.9089C115.012 34.9089 115.804 37.5127 115.804 39.1732C115.801 39.4339 115.783 39.6942 115.749 39.9527L109.339 39.9683ZM114.19 38.7912C114.19 37.7388 113.759 36.1095 111.894 36.1095C110.225 36.1095 109.488 37.6686 109.355 38.7912H114.19Z" fill="white"/>
<path d="M117.911 37.9648C117.911 36.8968 117.911 35.9769 117.833 35.135H119.283L119.338 36.9124H119.416C119.574 36.3603 119.902 35.8717 120.355 35.5162C120.808 35.1607 121.363 34.9564 121.939 34.9323C122.095 34.9307 122.25 34.9491 122.401 34.9869V36.546C122.114 36.4762 121.816 36.4634 121.524 36.5083C121.232 36.5532 120.952 36.655 120.699 36.8078C120.447 36.9605 120.227 37.1613 120.052 37.3986C119.878 37.636 119.752 37.9052 119.682 38.1909C119.646 38.3205 119.625 38.4539 119.62 38.5885C119.58 38.8467 119.557 39.107 119.549 39.368V44.1936H117.911V37.9648Z" fill="white"/>
<path d="M124.172 37.5906C124.188 36.7713 124.162 35.9517 124.094 35.135H125.559L125.653 36.6318C125.952 36.1032 126.39 35.6656 126.92 35.3662C127.45 35.0668 128.053 34.9168 128.662 34.9323C129.924 34.9323 131.883 35.7119 131.883 38.8301V44.1936H130.229V38.9705C130.229 37.5049 129.681 36.2888 128.121 36.2888C127.618 36.2954 127.13 36.4626 126.73 36.7658C126.329 37.0689 126.037 37.4919 125.896 37.9726C125.816 38.2246 125.779 38.4881 125.786 38.7522V44.2091H124.133L124.172 37.5906Z" fill="white"/>
<path d="M139.648 44.1936L139.514 43.0554H139.475C139.153 43.4895 138.731 43.8406 138.244 44.0793C137.757 44.318 137.22 44.4373 136.678 44.4274C135.992 44.4768 135.315 44.2532 134.795 43.8059C134.275 43.3586 133.954 42.7242 133.904 42.042C133.9 41.9693 133.9 41.8964 133.904 41.8237C133.904 39.6331 135.855 38.4326 139.389 38.456V38.3001C139.454 37.8171 139.327 37.3279 139.034 36.9374C138.741 36.5468 138.306 36.286 137.822 36.2108C137.668 36.1914 137.513 36.1914 137.36 36.2108C136.53 36.2192 135.717 36.4508 135.009 36.8812L134.633 35.7977C135.535 35.2656 136.569 34.9956 137.618 35.0181C140.408 35.0181 141.082 36.9046 141.082 38.721V42.0887C141.072 42.814 141.122 43.5387 141.23 44.2559L139.648 44.1936ZM139.405 39.5707C137.595 39.5707 135.55 39.8514 135.55 41.6132C135.522 41.9988 135.649 42.3797 135.903 42.6721C136.157 42.9644 136.518 43.1444 136.905 43.1723H137.125C137.611 43.18 138.087 43.0328 138.483 42.7523C138.879 42.4718 139.174 42.0727 139.326 41.6132C139.381 41.4441 139.413 41.2684 139.42 41.0909L139.405 39.5707Z" fill="white"/>
<path d="M145.595 32.5391V35.1584H147.946V36.4135H145.595V41.3092C145.595 42.4317 145.916 43.0632 146.833 43.0632C147.158 43.0697 147.482 43.033 147.797 42.9541L147.867 44.1858C147.397 44.3503 146.9 44.427 146.402 44.4118C146.071 44.4322 145.74 44.3807 145.432 44.2609C145.123 44.1411 144.845 43.9558 144.616 43.718C144.115 43.0459 143.886 42.2114 143.973 41.3793V36.4291H142.563V35.1584H143.973V32.9912L145.595 32.5391Z" fill="white"/>
<path d="M151.628 32.5936C151.628 32.8645 151.52 33.1242 151.328 33.3157C151.135 33.5073 150.874 33.6149 150.602 33.6149C150.33 33.6149 150.069 33.5073 149.876 33.3157C149.684 33.1242 149.576 32.8645 149.576 32.5936C149.572 32.4616 149.595 32.3302 149.643 32.207C149.691 32.0838 149.763 31.9712 149.855 31.8756C149.947 31.78 150.056 31.7034 150.178 31.65C150.299 31.5967 150.43 31.5676 150.563 31.5646H150.61C150.74 31.5604 150.869 31.5817 150.99 31.6273C151.112 31.6729 151.223 31.7418 151.317 31.8301C151.412 31.9184 151.488 32.0244 151.541 32.1421C151.595 32.2597 151.624 32.3867 151.628 32.5157V32.5936ZM149.779 44.1936V35.1584H151.44V44.2169L149.779 44.1936Z" fill="white"/>
<path d="M162.489 39.5941C162.489 42.9385 160.138 44.4041 157.952 44.4041C155.491 44.4041 153.587 42.6033 153.587 39.7267C153.587 36.6942 155.586 34.9167 158.101 34.9167C160.616 34.9167 162.489 36.8189 162.489 39.5941ZM155.264 39.6877C155.264 41.6678 156.408 43.1646 158.03 43.1646C159.652 43.1646 160.796 41.6912 160.796 39.6487C160.796 38.0896 160.013 36.1641 158.069 36.1641C156.126 36.1641 155.264 37.9648 155.264 39.6877Z" fill="white"/>
<path d="M164.659 37.5906C164.675 36.7713 164.649 35.9517 164.581 35.135H166.046L166.117 36.6318C166.416 36.1032 166.854 35.6656 167.384 35.3662C167.914 35.0668 168.516 34.9168 169.126 34.9323C170.387 34.9323 172.346 35.7119 172.346 38.8301V44.1936H170.724V38.9705C170.724 37.5049 170.183 36.2888 168.624 36.2888C168.121 36.2954 167.633 36.4626 167.232 36.7658C166.832 37.0689 166.54 37.4919 166.399 37.9726C166.319 38.2246 166.282 38.4881 166.289 38.7522V44.2091H164.636L164.659 37.5906Z" fill="white"/>
<path d="M180.135 44.1936L180.002 43.0554H179.947C179.626 43.4874 179.206 43.8371 178.722 44.0757C178.239 44.3143 177.705 44.4348 177.165 44.4274C176.479 44.4768 175.802 44.2532 175.282 43.8059C174.762 43.3586 174.441 42.7242 174.391 42.042C174.387 41.9693 174.387 41.8964 174.391 41.8237C174.391 39.6331 176.342 38.4326 179.876 38.456V38.3001C179.941 37.8112 179.808 37.3169 179.507 36.9253C179.206 36.5337 178.761 36.2768 178.27 36.2108C178.116 36.1914 177.961 36.1914 177.808 36.2108C176.978 36.2192 176.165 36.4508 175.457 36.8812L175.081 35.7977C175.983 35.2656 177.017 34.9956 178.066 35.0181C180.848 35.0181 181.529 36.9046 181.529 38.721V42.0887C181.52 42.814 181.57 43.5387 181.678 44.2559L180.135 44.1936ZM179.892 39.5707C178.082 39.5707 176.037 39.8514 176.037 41.6132C176.009 41.9988 176.136 42.3797 176.39 42.6721C176.644 42.9644 177.005 43.1444 177.392 43.1723H177.604C178.09 43.18 178.566 43.0328 178.962 42.7523C179.358 42.4718 179.654 42.0727 179.806 41.6132C179.86 41.4441 179.892 41.2684 179.9 41.0909L179.892 39.5707Z" fill="white"/>
<path d="M184.139 30.9098H185.8V44.1624H184.139V30.9098Z" fill="white"/>
<path d="M192.946 42.2135C193.839 42.7263 194.853 42.9953 195.884 42.993C197.553 42.993 198.533 42.1199 198.533 40.8414C198.533 39.5629 197.859 38.9939 196.143 38.339C194.074 37.6062 192.797 36.5382 192.797 34.7608C192.797 32.7963 194.435 31.3385 196.895 31.3385C197.867 31.3068 198.832 31.5186 199.7 31.9544L199.246 33.2874C198.508 32.8879 197.68 32.6814 196.84 32.6872C195.109 32.6872 194.49 33.7162 194.49 34.5737C194.49 35.7509 195.273 36.3355 197.013 37.006C199.16 37.8323 200.249 38.8613 200.249 40.7167C200.249 42.5721 198.799 44.3417 195.806 44.3417C194.678 44.3628 193.563 44.0943 192.57 43.5621L192.946 42.2135Z" fill="white"/>
<path d="M208.9 38.2767H203.971V42.8215H209.456V44.1858H202.325V31.5802H209.166V32.9522H203.971V36.9358H208.9V38.2767Z" fill="white"/>
</g>
<defs>
<clipPath id="clip0_119_6909">
<rect width="227" height="47" fill="white"/>
</clipPath>
</defs>
</svg>
